<mxfile host="app.diagrams.net" modified="2023-09-16T08:02:22.956Z" agent="Mozilla/5.0 (Macintosh; Intel Mac OS X 10_15_7) AppleWebKit/605.1.15 (KHTML, like Gecko) Version/16.6 Safari/605.1.15" etag="Z4OUBG8sQpIqf6ybnR2q" version="21.7.5" type="github">
  <diagram id="C5RBs43oDa-KdzZeNtuy" name="Demo Class Diagram">
    <mxGraphModel dx="954" dy="647" grid="1" gridSize="10" guides="1" tooltips="1" connect="1" arrows="1" fold="1" page="1" pageScale="1" pageWidth="827" pageHeight="1169" math="0" shadow="0">
      <root>
        <mxCell id="WIyWlLk6GJQsqaUBKTNV-0" />
        <mxCell id="WIyWlLk6GJQsqaUBKTNV-1" parent="WIyWlLk6GJQsqaUBKTNV-0" />
        <mxCell id="JOsmvyk3Kzr-AjyMZDF_-0" value="" style="shape=ellipse;html=1;fillColor=strokeColor;fontSize=18;fontColor=#ffffff;" parent="WIyWlLk6GJQsqaUBKTNV-1" vertex="1">
          <mxGeometry x="394" y="510" width="40" height="40" as="geometry" />
        </mxCell>
        <mxCell id="gobYm3UmuIn_y6GJlnak-0" value="&lt;font style=&quot;font-size: 25px;&quot;&gt;Test update diagram&lt;/font&gt;" style="text;html=1;strokeColor=none;fillColor=none;align=center;verticalAlign=middle;whiteSpace=wrap;rounded=0;" parent="WIyWlLk6GJQsqaUBKTNV-1" vertex="1">
          <mxGeometry x="340" y="50" width="60" height="30" as="geometry" />
        </mxCell>
        <mxCell id="uLR3c1GkqGxWioVNtNUL-13" style="edgeStyle=orthogonalEdgeStyle;rounded=0;orthogonalLoop=1;jettySize=auto;html=1;entryX=0.063;entryY=0.636;entryDx=0;entryDy=0;entryPerimeter=0;" edge="1" parent="WIyWlLk6GJQsqaUBKTNV-1" source="uLR3c1GkqGxWioVNtNUL-5" target="uLR3c1GkqGxWioVNtNUL-10">
          <mxGeometry relative="1" as="geometry" />
        </mxCell>
        <mxCell id="uLR3c1GkqGxWioVNtNUL-5" value="&lt;p style=&quot;margin:0px;margin-top:4px;text-align:center;&quot;&gt;&lt;b&gt;User&lt;/b&gt;&lt;/p&gt;&lt;hr size=&quot;1&quot;&gt;&lt;p style=&quot;margin:0px;margin-left:4px;&quot;&gt;&lt;b&gt;PK:+ userID&lt;/b&gt;&lt;/p&gt;&lt;p style=&quot;margin:0px;margin-left:4px;&quot;&gt;+userName&lt;/p&gt;&lt;p style=&quot;margin:0px;margin-left:4px;&quot;&gt;+passWord&lt;/p&gt;&lt;p style=&quot;margin:0px;margin-left:4px;&quot;&gt;+email&lt;/p&gt;&lt;p style=&quot;margin:0px;margin-left:4px;&quot;&gt;+permission&lt;/p&gt;&lt;p style=&quot;margin:0px;margin-left:4px;&quot;&gt;+authorName&lt;/p&gt;&lt;p style=&quot;margin:0px;margin-left:4px;&quot;&gt;&lt;br&gt;&lt;/p&gt;&lt;hr size=&quot;1&quot;&gt;&lt;p style=&quot;margin:0px;margin-left:4px;&quot;&gt;+ method(): Type&lt;/p&gt;" style="verticalAlign=top;align=left;overflow=fill;fontSize=12;fontFamily=Helvetica;html=1;whiteSpace=wrap;" vertex="1" parent="WIyWlLk6GJQsqaUBKTNV-1">
          <mxGeometry x="60" y="310" width="160" height="240" as="geometry" />
        </mxCell>
        <mxCell id="uLR3c1GkqGxWioVNtNUL-10" value="&lt;p style=&quot;margin:0px;margin-top:4px;text-align:center;&quot;&gt;&lt;b&gt;Post&lt;/b&gt;&lt;/p&gt;&lt;hr size=&quot;1&quot;&gt;&lt;p style=&quot;margin:0px;margin-left:4px;&quot;&gt;&lt;b&gt;PK:+postID&lt;/b&gt;&lt;/p&gt;&lt;p style=&quot;margin:0px;margin-left:4px;&quot;&gt;+postTitle&lt;/p&gt;&lt;p style=&quot;margin:0px;margin-left:4px;&quot;&gt;+overViewofPost&lt;/p&gt;&lt;p style=&quot;margin:0px;margin-left:4px;&quot;&gt;+body&lt;/p&gt;&lt;p style=&quot;margin:0px;margin-left:4px;&quot;&gt;+image&lt;/p&gt;&lt;p style=&quot;margin:0px;margin-left:4px;&quot;&gt;FK:+&lt;b style=&quot;border-color: var(--border-color);&quot;&gt;&amp;nbsp;userID&lt;/b&gt;&lt;/p&gt;&lt;p style=&quot;margin:0px;margin-left:4px;&quot;&gt;&lt;b&gt;FK:+seriesID&lt;/b&gt;&lt;/p&gt;&lt;div&gt;&lt;b style=&quot;border-color: var(--border-color);&quot;&gt;&lt;br&gt;&lt;/b&gt;&lt;/div&gt;&lt;p style=&quot;margin:0px;margin-left:4px;&quot;&gt;&lt;br&gt;&lt;/p&gt;&lt;hr size=&quot;1&quot;&gt;&lt;p style=&quot;margin:0px;margin-left:4px;&quot;&gt;+ method(): Type&lt;/p&gt;" style="verticalAlign=top;align=left;overflow=fill;fontSize=12;fontFamily=Helvetica;html=1;whiteSpace=wrap;" vertex="1" parent="WIyWlLk6GJQsqaUBKTNV-1">
          <mxGeometry x="400" y="290" width="160" height="220" as="geometry" />
        </mxCell>
        <mxCell id="uLR3c1GkqGxWioVNtNUL-17" style="edgeStyle=orthogonalEdgeStyle;rounded=0;orthogonalLoop=1;jettySize=auto;html=1;" edge="1" parent="WIyWlLk6GJQsqaUBKTNV-1" source="uLR3c1GkqGxWioVNtNUL-11" target="uLR3c1GkqGxWioVNtNUL-10">
          <mxGeometry relative="1" as="geometry" />
        </mxCell>
        <mxCell id="uLR3c1GkqGxWioVNtNUL-11" value="&lt;p style=&quot;margin:0px;margin-top:4px;text-align:center;&quot;&gt;&lt;b&gt;Series&lt;/b&gt;&lt;/p&gt;&lt;hr size=&quot;1&quot;&gt;&lt;p style=&quot;margin:0px;margin-left:4px;&quot;&gt;&lt;b&gt;PK:+ seriesID&lt;/b&gt;&lt;/p&gt;&lt;p style=&quot;margin:0px;margin-left:4px;&quot;&gt;+ seriesName&lt;/p&gt;&lt;p style=&quot;margin:0px;margin-left:4px;&quot;&gt;+seriesImage&lt;/p&gt;&lt;p style=&quot;margin:0px;margin-left:4px;&quot;&gt;+overViewofSeries&lt;/p&gt;&lt;p style=&quot;margin:0px;margin-left:4px;&quot;&gt;&lt;br&gt;&lt;/p&gt;&lt;hr size=&quot;1&quot;&gt;&lt;p style=&quot;margin:0px;margin-left:4px;&quot;&gt;+ method(): Type&lt;/p&gt;" style="verticalAlign=top;align=left;overflow=fill;fontSize=12;fontFamily=Helvetica;html=1;whiteSpace=wrap;" vertex="1" parent="WIyWlLk6GJQsqaUBKTNV-1">
          <mxGeometry x="710" y="300" width="160" height="200" as="geometry" />
        </mxCell>
        <mxCell id="uLR3c1GkqGxWioVNtNUL-15" value="1,n" style="text;html=1;align=center;verticalAlign=middle;resizable=0;points=[];autosize=1;strokeColor=none;fillColor=none;" vertex="1" parent="WIyWlLk6GJQsqaUBKTNV-1">
          <mxGeometry x="280" y="400" width="40" height="30" as="geometry" />
        </mxCell>
        <mxCell id="uLR3c1GkqGxWioVNtNUL-18" value="1,n&lt;br&gt;" style="text;html=1;align=center;verticalAlign=middle;resizable=0;points=[];autosize=1;strokeColor=none;fillColor=none;" vertex="1" parent="WIyWlLk6GJQsqaUBKTNV-1">
          <mxGeometry x="610" y="370" width="40" height="30" as="geometry" />
        </mxCell>
      </root>
    </mxGraphModel>
  </diagram>
</mxfile>
